<svg width="141" height="298" viewBox="0 0 141 298" fill="none" xmlns="http://www.w3.org/2000/svg">
<g clip-path="url(#clip0)">
<path fill-rule="evenodd" clip-rule="evenodd" d="M140.254 17.5528C140.254 7.86495 132.389 0 122.702 0H17.385C7.69716 0 -0.167786 7.86495 -0.167786 17.5528V280.195C-0.167786 289.882 7.69716 297.747 17.385 297.747H122.702C132.389 297.747 140.254 289.882 140.254 280.195V17.5528Z" fill="#F2F2F2"/>
<path fill-rule="evenodd" clip-rule="evenodd" d="M82.3967 25.016C82.3967 24.1197 81.6687 23.3918 80.7728 23.3918H60.616C59.7184 23.3918 58.9904 24.1197 58.9904 25.016C58.9904 25.9129 59.7184 26.6409 60.616 26.6409H80.7728C81.6687 26.6409 82.3967 25.9129 82.3967 25.016Z" fill="#ACACAC"/>
<path d="M70.3685 292.303C77.8861 292.303 83.9803 286.209 83.9803 278.692C83.9803 271.174 77.8861 265.08 70.3685 265.08C62.8508 265.08 56.7566 271.174 56.7566 278.692C56.7566 286.209 62.8508 292.303 70.3685 292.303Z" fill="#FAFAFA"/>
<path fill-rule="evenodd" clip-rule="evenodd" d="M73.1065 273.312L73.1754 273.315L73.2429 273.319L73.3103 273.325L73.3778 273.333L73.4438 273.342L73.5099 273.353L73.5752 273.365L73.6405 273.38L73.7045 273.395L73.7684 273.412L73.8316 273.431L73.8933 273.451L73.9551 273.473L74.0162 273.497L74.0765 273.521L74.1362 273.547L74.1944 273.575L74.2527 273.603L74.3095 273.634L74.3663 273.665L74.4217 273.698L74.4763 273.732L74.5296 273.767L74.5828 273.804L74.6347 273.842L74.6858 273.881L74.7355 273.921L74.7845 273.963L74.8321 274.005L74.879 274.048L74.9251 274.093L74.9699 274.139L75.0132 274.186L75.0558 274.234L75.0977 274.283L75.1374 274.333L75.1765 274.384L75.2141 274.436L75.2511 274.489L75.2866 274.542L75.3206 274.597L75.3533 274.652L75.3846 274.709L75.4151 274.766L75.4435 274.824L75.4712 274.882L75.4975 274.942L75.5223 275.002L75.545 275.063L75.567 275.125L75.5869 275.187L75.6061 275.25L75.6231 275.314L75.6388 275.378L75.653 275.443L75.6658 275.508L75.6764 275.575L75.6856 275.641L75.6934 275.708L75.6991 275.775L75.7041 275.844L75.7062 275.912L75.7069 275.981V281.319L75.7062 281.388L75.7041 281.457L75.6991 281.524L75.6934 281.593L75.6856 281.659L75.6764 281.726L75.6658 281.791L75.653 281.858L75.6388 281.922L75.6231 281.986L75.6061 282.05L75.5869 282.113L75.567 282.176L75.545 282.237L75.5223 282.298L75.4975 282.358L75.4712 282.418L75.4435 282.477L75.4151 282.534L75.3846 282.592L75.3533 282.648L75.3206 282.703L75.2866 282.758L75.2511 282.812L75.2141 282.864L75.1765 282.916L75.1374 282.967L75.0977 283.017L75.0558 283.066L75.0132 283.114L74.9699 283.161L74.9251 283.207L74.879 283.251L74.8321 283.295L74.7845 283.337L74.7355 283.379L74.6858 283.419L74.6347 283.458L74.5828 283.496L74.5296 283.533L74.4763 283.568L74.4217 283.602L74.3663 283.635L74.3095 283.667L74.2527 283.697L74.1944 283.726L74.1362 283.753L74.0765 283.779L74.0162 283.804L73.9551 283.827L73.8933 283.849L73.8316 283.869L73.7684 283.888L73.7045 283.905L73.6405 283.92L73.5752 283.935L73.5099 283.947L73.4438 283.958L73.3778 283.967L73.3103 283.975L73.2429 283.981L73.1754 283.986L73.1065 283.988L73.0377 283.989H67.6991L67.6302 283.988L67.5614 283.986L67.4939 283.981L67.4264 283.975L67.359 283.967L67.2929 283.958L67.2269 283.947L67.1616 283.935L67.0962 283.92L67.0323 283.905L66.9684 283.888L66.9052 283.869L66.8434 283.849L66.7817 283.827L66.7206 283.804L66.6602 283.779L66.6006 283.753L66.5424 283.726L66.4841 283.697L66.4273 283.667L66.3705 283.635L66.3151 283.602L66.2605 283.568L66.2072 283.533L66.1539 283.496L66.1021 283.458L66.051 283.419L66.0013 283.379L65.9523 283.337L65.9047 283.295L65.8578 283.251L65.8117 283.207L65.7669 283.161L65.7236 283.114L65.681 283.066L65.6391 283.017L65.5993 282.967L65.5603 282.916L65.5219 282.864L65.4857 282.812L65.4502 282.758L65.4161 282.703L65.3835 282.648L65.3522 282.592L65.3217 282.534L65.2926 282.477L65.2656 282.418L65.2393 282.358L65.2145 282.298L65.1917 282.237L65.1697 282.176L65.1499 282.113L65.1307 282.05L65.1136 281.986L65.098 281.922L65.0838 281.858L65.071 281.791L65.0604 281.726L65.0511 281.659L65.0433 281.593L65.0377 281.524L65.0327 281.457L65.0306 281.388L65.0298 281.319V275.981L65.0306 275.912L65.0327 275.844L65.0377 275.775L65.0433 275.708L65.0511 275.641L65.0604 275.575L65.071 275.508L65.0838 275.443L65.098 275.378L65.1136 275.314L65.1307 275.25L65.1499 275.187L65.1697 275.125L65.1917 275.063L65.2145 275.002L65.2393 274.942L65.2656 274.882L65.2926 274.824L65.3217 274.766L65.3522 274.709L65.3835 274.652L65.4161 274.597L65.4502 274.542L65.4857 274.489L65.5219 274.436L65.5603 274.384L65.5993 274.333L65.6391 274.283L65.681 274.234L65.7236 274.186L65.7669 274.139L65.8117 274.093L65.8578 274.048L65.9047 274.005L65.9523 273.963L66.0013 273.921L66.051 273.881L66.1021 273.842L66.1539 273.804L66.2072 273.767L66.2605 273.732L66.3151 273.698L66.3705 273.665L66.4273 273.634L66.4841 273.603L66.5424 273.575L66.6006 273.547L66.6602 273.521L66.7206 273.497L66.7817 273.473L66.8434 273.451L66.9052 273.431L66.9684 273.412L67.0323 273.395L67.0962 273.38L67.1616 273.365L67.2269 273.353L67.2929 273.342L67.359 273.333L67.4264 273.325L67.4939 273.319L67.5614 273.315L67.6302 273.312L67.6991 273.311H73.0377L73.1065 273.312ZM67.7069 274.539L67.6615 274.54L67.6238 274.541L67.5869 274.543L67.5507 274.547L67.5145 274.551L67.4783 274.556L67.4428 274.562L67.408 274.568L67.3732 274.576L67.3384 274.585L67.3043 274.594L67.2709 274.604L67.2368 274.614L67.2042 274.627L67.1715 274.639L67.1389 274.652L67.1069 274.666L67.0756 274.68L67.0444 274.696L67.0132 274.712L66.9833 274.729L66.9535 274.747L66.9237 274.766L66.8946 274.785L66.8662 274.805L66.8378 274.825L66.8101 274.847L66.7831 274.868L66.7568 274.891L66.7305 274.914L66.705 274.938L66.6801 274.962L66.656 274.987L66.6318 275.012L66.6091 275.038L66.5864 275.065L66.5644 275.092L66.5438 275.119L66.5232 275.148L66.5033 275.176L66.4841 275.205L66.4657 275.235L66.4479 275.265L66.4309 275.295L66.4145 275.326L66.3989 275.357L66.3847 275.388L66.3705 275.42L66.357 275.453L66.345 275.486L66.3329 275.519L66.3222 275.552L66.3123 275.586L66.3031 275.62L66.2945 275.655L66.2867 275.69L66.2803 275.724L66.2739 275.76L66.269 275.796L66.2654 275.832L66.2619 275.868L66.2597 275.905L66.2583 275.943L66.2576 275.988V281.311L66.2583 281.358L66.2597 281.395L66.2619 281.431L66.2654 281.468L66.269 281.505L66.2739 281.54L66.2803 281.576L66.2867 281.611L66.2945 281.646L66.3031 281.68L66.3123 281.714L66.3222 281.748L66.3329 281.782L66.345 281.814L66.357 281.847L66.3705 281.88L66.3847 281.911L66.3989 281.943L66.4145 281.974L66.4309 282.005L66.4479 282.036L66.4657 282.066L66.4841 282.095L66.5033 282.124L66.5232 282.152L66.5438 282.181L66.5644 282.208L66.5864 282.235L66.6091 282.262L66.6318 282.288L66.656 282.313L66.6801 282.338L66.705 282.362L66.7305 282.387L66.7568 282.409L66.7831 282.432L66.8101 282.454L66.8378 282.475L66.8662 282.496L66.8946 282.516L66.9237 282.534L66.9528 282.553L66.9833 282.57L67.0132 282.587L67.0444 282.604L67.0756 282.619L67.1069 282.634L67.1389 282.648L67.1715 282.661L67.2042 282.674L67.2368 282.685L67.2702 282.696L67.3043 282.706L67.3384 282.715L67.3732 282.724L67.408 282.732L67.4428 282.738L67.4783 282.744L67.5145 282.749L67.5507 282.754L67.5869 282.756L67.6238 282.759L67.6615 282.76L67.7069 282.761H73.0299L73.0753 282.76L73.1129 282.759L73.1499 282.756L73.1861 282.754L73.2223 282.749L73.2585 282.744L73.294 282.738L73.3288 282.732L73.3636 282.724L73.3984 282.715L73.4325 282.706L73.4666 282.696L73.4999 282.685L73.5326 282.674L73.5653 282.661L73.5979 282.648L73.6299 282.634L73.6611 282.619L73.6924 282.604L73.7236 282.587L73.7534 282.57L73.784 282.553L73.8131 282.534L73.8422 282.515L73.8706 282.496L73.899 282.475L73.9267 282.454L73.9537 282.432L73.98 282.41L74.0062 282.387L74.0318 282.362L74.0567 282.338L74.0808 282.313L74.105 282.288L74.1277 282.262L74.1504 282.235L74.1724 282.208L74.193 282.181L74.2136 282.153L74.2335 282.124L74.2527 282.095L74.2711 282.066L74.2889 282.036L74.3059 282.005L74.3222 281.974L74.3379 281.943L74.3521 281.911L74.3663 281.88L74.3798 281.847L74.3918 281.814L74.4039 281.782L74.4146 281.748L74.4245 281.714L74.4337 281.68L74.4422 281.646L74.4501 281.611L74.4565 281.576L74.4628 281.54L74.4678 281.505L74.4714 281.468L74.4749 281.431L74.477 281.395L74.4785 281.357L74.4792 281.311V275.988L74.4785 275.943L74.477 275.905L74.4749 275.868L74.4714 275.832L74.4678 275.796L74.4628 275.76L74.4565 275.724L74.4501 275.69L74.4422 275.655L74.4337 275.62L74.4245 275.586L74.4146 275.552L74.4039 275.519L74.3918 275.486L74.3798 275.453L74.3663 275.42L74.3521 275.388L74.3379 275.357L74.3222 275.326L74.3059 275.295L74.2889 275.265L74.2711 275.235L74.2527 275.205L74.2335 275.176L74.2136 275.148L74.193 275.119L74.1724 275.092L74.1504 275.065L74.1277 275.038L74.105 275.012L74.0808 274.987L74.0567 274.962L74.0318 274.938L74.0062 274.914L73.98 274.891L73.9537 274.868L73.9267 274.847L73.899 274.825L73.8706 274.805L73.8422 274.785L73.8131 274.766L73.7833 274.747L73.7534 274.729L73.7236 274.712L73.6924 274.696L73.6611 274.68L73.6299 274.666L73.5979 274.652L73.5653 274.639L73.5326 274.627L73.4999 274.614L73.4659 274.604L73.4325 274.594L73.3984 274.585L73.3636 274.576L73.3288 274.568L73.294 274.562L73.2585 274.556L73.2223 274.551L73.1861 274.547L73.1499 274.543L73.1129 274.541L73.0753 274.54L73.0299 274.539H67.7069Z" fill="#BABABA"/>
<path d="M70.3684 16.4866C71.9619 16.4866 73.2536 15.1949 73.2536 13.6015C73.2536 12.008 71.9619 10.7163 70.3684 10.7163C68.775 10.7163 67.4833 12.008 67.4833 13.6015C67.4833 15.1949 68.775 16.4866 70.3684 16.4866Z" fill="#D8D8D8"/>
<path d="M70.3685 14.8913C71.075 14.8913 71.6479 14.3185 71.6479 13.6119C71.6479 12.9053 71.075 12.3325 70.3685 12.3325C69.6619 12.3325 69.0891 12.9053 69.0891 13.6119C69.0891 14.3185 69.6619 14.8913 70.3685 14.8913Z" fill="#EB5055"/>
<path d="M131.478 42.2722H9.25757V258.757H131.478V42.2722Z" fill="#161616"/>
<path fill-rule="evenodd" clip-rule="evenodd" d="M132.226 40.4711L132.856 40.8932L133.281 41.5272L133.43 42.2721V258.757L133.281 259.503L132.856 260.137L132.226 260.559L131.478 260.708H9.25755L8.51219 260.559L7.87933 260.137L7.45743 259.503L7.30835 258.757V42.2721L7.45743 41.5272L7.87933 40.8932L8.51219 40.4711L9.25755 40.3221H131.478L132.226 40.4711ZM9.25755 42.2721V258.757H131.478V42.2721H9.25755Z" fill="#C7C7C7"/>
</g>
<defs>
<clipPath id="clip0">
<rect x="0.157288" width="140.422" height="297.747" fill="white"/>
</clipPath>
</defs>
</svg>
